<svg width="22" height="20" viewBox="0 0 22 20" fill="none" xmlns="http://www.w3.org/2000/svg">
    <path fill-rule="evenodd" clip-rule="evenodd" d="M12.8563 9.38822L13.7358 8.44147C14.5887 7.52332 15.2032 6.5979 15.2032 5.61092C15.2032 3.24283 13.3096 1.34375 10.9992 1.34375C8.68865 1.34375 6.7951 3.24283 6.7951 5.61092C6.7951 6.59794 7.40952 7.52337 8.26239 8.44147L9.14186 9.38822L8.00475 10.002C5.56715 11.3179 4.07951 12.7066 3.161 14.0223C2.24526 15.334 1.86014 16.6231 1.70003 17.7969C1.64673 18.1878 1.98343 18.6565 2.591 18.6565H19.4072C20.0148 18.6565 20.3515 18.1878 20.2982 17.7969C20.1381 16.6231 19.7529 15.334 18.8372 14.0223C17.9187 12.7066 16.431 11.3179 13.9934 10.002L12.8563 9.38822ZM6.63885 9.62974C2.26992 12.2601 1.04181 15.2232 0.709208 17.6618C0.559934 18.7562 1.48643 19.6565 2.591 19.6565H19.4072C20.5118 19.6565 21.4383 18.7562 21.289 17.6618C20.9564 15.2232 19.7283 12.2601 15.3593 9.62974C15.0758 9.45903 14.7791 9.28973 14.4685 9.12207C14.6951 8.87812 14.9206 8.61874 15.1304 8.34406C15.7312 7.55749 16.2032 6.64543 16.2032 5.61092C16.2032 2.70194 13.8733 0.34375 10.9992 0.34375C8.12503 0.34375 5.7951 2.70194 5.7951 5.61092C5.7951 6.64542 6.26703 7.55748 6.86781 8.34406C7.07761 8.61874 7.30312 8.87812 7.52973 9.12207C7.21914 9.28973 6.92238 9.45903 6.63885 9.62974Z" fill="#C9383F"/>
</svg>
