<svg width="36" height="36" viewBox="0 0 36 36" fill="none" xmlns="http://www.w3.org/2000/svg">
    <path d="M23.3149 23.168L23.9792 22.4687L22.3931 20.9623L21.7289 21.6616L23.3149 23.168ZM26.1648 22.1743L28.951 23.778L30.0422 21.8822L27.2561 20.2785L26.1648 22.1743ZM29.4887 27.1029L27.4169 29.284L29.003 30.7904L31.0747 28.6093L29.4887 27.1029ZM26.1705 29.9828C24.0778 30.1895 18.6174 30.0131 12.6905 23.7732L11.1044 25.2797C17.5639 32.0803 23.7256 32.4223 26.3853 32.1598L26.1705 29.9828ZM12.6905 23.7732C7.0378 17.8219 6.08962 12.802 5.97144 10.6002L3.78709 10.7174C3.93183 13.4142 5.07689 18.9339 11.1044 25.2797L12.6905 23.7732ZM14.6962 14.0941L15.1144 13.6537L13.5284 12.1472L13.1101 12.5876L14.6962 14.0941ZM15.443 8.17113L13.6041 5.5702L11.818 6.83308L13.6569 9.43398L15.443 8.17113ZM7.37997 5.00947L5.09097 7.41936L6.67703 8.92586L8.96603 6.51598L7.37997 5.00947ZM13.9032 13.3408C13.1101 12.5876 13.1081 12.5897 13.1081 12.5897L13.106 12.5919C13.1047 12.5934 13.1032 12.5949 13.1018 12.5965C13.0989 12.5995 13.096 12.6028 13.0929 12.6061C13.0868 12.6129 13.0803 12.6201 13.0735 12.628C13.0598 12.6437 13.0449 12.6616 13.0288 12.6819C12.9968 12.7224 12.9605 12.7722 12.9225 12.8316C12.8462 12.9508 12.7634 13.1079 12.6934 13.3048C12.5509 13.7052 12.4732 14.2354 12.5703 14.8976C12.7609 16.1986 13.6134 17.9482 15.8407 20.2932L17.4268 18.7867C15.3449 16.5947 14.832 15.2447 14.7346 14.5805C14.6877 14.26 14.7354 14.0912 14.7543 14.0381C14.7649 14.0083 14.7718 14 14.765 14.0107C14.7617 14.0158 14.7552 14.0254 14.7441 14.0394C14.7386 14.0464 14.732 14.0544 14.7241 14.0635C14.7201 14.0681 14.7158 14.0729 14.7112 14.078C14.7088 14.0806 14.7064 14.0832 14.7039 14.0859L14.7001 14.0899L14.6982 14.092C14.6982 14.092 14.6962 14.0941 13.9032 13.3408ZM15.8407 20.2932C18.0616 22.6313 19.7388 23.5505 21.0185 23.7583C21.6752 23.8649 22.2068 23.7798 22.6093 23.6211C22.806 23.5435 22.9616 23.4524 23.0784 23.3696C23.1367 23.3281 23.1853 23.2889 23.2244 23.2546C23.2441 23.2374 23.2613 23.2214 23.2763 23.2068C23.2839 23.1997 23.2909 23.1927 23.2973 23.1862C23.3005 23.183 23.3036 23.1798 23.3065 23.1768C23.3079 23.1753 23.3094 23.1738 23.3109 23.1724L23.3129 23.1702C23.3129 23.1702 23.3149 23.168 22.5219 22.4148C21.7289 21.6616 21.7309 21.6595 21.7309 21.6595L21.7328 21.6573L21.7367 21.6534C21.7394 21.6508 21.7418 21.6481 21.7442 21.6457C21.7491 21.6408 21.7538 21.6362 21.7582 21.632C21.7669 21.6235 21.7749 21.6162 21.7819 21.6101C21.7958 21.5978 21.8062 21.59 21.8129 21.5853C21.8266 21.5755 21.8251 21.5789 21.8066 21.5862C21.7784 21.5972 21.6459 21.6441 21.3692 21.5991C20.7821 21.5038 19.5154 20.9856 17.4268 18.7867L15.8407 20.2932ZM13.6041 5.5702C12.126 3.47957 9.16815 3.12685 7.37997 5.00947L8.96603 6.51598C9.7285 5.71324 11.0708 5.7763 11.818 6.83308L13.6041 5.5702ZM5.97144 10.6002C5.94019 10.0178 6.19375 9.43466 6.67703 8.92586L5.09097 7.41936C4.30952 8.24207 3.71557 9.38496 3.78709 10.7174L5.97144 10.6002ZM27.4169 29.284C27.0101 29.7124 26.5844 29.942 26.1705 29.9828L26.3853 32.1598C27.4748 32.0522 28.3566 31.4712 29.003 30.7904L27.4169 29.284ZM15.1144 13.6537C16.5255 12.1682 16.6254 9.84334 15.443 8.17113L13.6569 9.43398C14.2725 10.3047 14.1781 11.4632 13.5284 12.1472L15.1144 13.6537ZM28.951 23.778C30.148 24.4671 30.3823 26.1621 29.4887 27.1029L31.0747 28.6093C32.9777 26.6057 32.4235 23.2529 30.0422 21.8822L28.951 23.778ZM23.9792 22.4687C24.5413 21.877 25.4171 21.7439 26.1648 22.1743L27.2561 20.2785C25.6541 19.3564 23.6673 19.6208 22.3931 20.9623L23.9792 22.4687Z" fill="white"/>
</svg>
