<svg width="24" height="24" viewBox="0 0 24 24" fill="none" xmlns="http://www.w3.org/2000/svg">
    <path d="M3.96619 11.3594H2.59701C2.26729 11.3594 2 11.6267 2 11.9564V17.5033C2 17.9734 2.38103 18.3544 2.85106 18.3544H4.88027C5.35029 18.3544 5.73133 17.9734 5.73133 17.5033V13.6725C5.73133 13.5129 5.68648 13.3566 5.6019 13.2213L4.68782 11.7593C4.53228 11.5105 4.25958 11.3594 3.96619 11.3594Z" stroke="#C9383F"/>
    <path d="M2.8457 11.064C2.8457 9.87368 3.08248 8.69503 3.54252 7.59534C4.00257 6.49565 4.67686 5.49644 5.5269 4.65478C6.37695 3.81311 7.3861 3.14546 8.49674 2.68995C9.60738 2.23445 10.7978 2 11.9999 2C13.202 2 14.3924 2.23445 15.5031 2.68995C16.6137 3.14546 17.6228 3.81311 18.4729 4.65478C19.3229 5.49645 19.9972 6.49565 20.4573 7.59534C20.9173 8.69503 21.1541 9.87368 21.1541 11.064L20.0316 11.064C20.0316 10.0196 19.8238 8.98552 19.4202 8.02068C19.0166 7.05583 18.425 6.17915 17.6792 5.44069C16.9333 4.70223 16.0479 4.11645 15.0735 3.7168C14.099 3.31715 13.0546 3.11145 11.9999 3.11145C10.9452 3.11145 9.90076 3.31715 8.92631 3.7168C7.95186 4.11645 7.06645 4.70223 6.32064 5.44069C5.57483 6.17915 4.98322 7.05583 4.57959 8.02068C4.17596 8.98552 3.96822 10.0196 3.96822 11.064H2.8457Z" fill="#C9383F"/>
    <path d="M7.84837 6.52869C8.94933 5.43859 10.4425 4.82617 11.9995 4.82617C13.5565 4.82617 15.0497 5.43859 16.1507 6.52869L15.5415 7.13184C14.6021 6.2017 13.328 5.67915 11.9995 5.67915C10.671 5.67915 9.39692 6.2017 8.45752 7.13184L7.84837 6.52869Z" fill="#C9383F"/>
    <path d="M20.0338 11.3594H21.403C21.7327 11.3594 22 11.6267 22 11.9564V17.5033C22 17.9734 21.619 18.3544 21.1489 18.3544H19.1197C18.6497 18.3544 18.2687 17.9734 18.2687 17.5033V13.6725C18.2687 13.5129 18.3135 13.3566 18.3981 13.2213L19.3122 11.7593C19.4677 11.5105 19.7404 11.3594 20.0338 11.3594Z" stroke="#C9383F"/>
    <path d="M18.6668 18.207C16.6534 21.2699 14.7133 21.9622 10.3086 22.0001" stroke="#C9383F"/>
</svg>
