<svg width="44" height="44" viewBox="0 0 44 44" fill="none" xmlns="http://www.w3.org/2000/svg">
    <g clip-path="url(#clip0_486_1654)">
        <mask id="path-1-outside-1_486_1654" maskUnits="userSpaceOnUse" x="-1" y="8.90039" width="34" height="26" fill="black">
            <rect fill="white" x="-1" y="8.90039" width="34" height="26"/>
            <path d="M22.605 9.90039H22.9625L23.6775 10.0379L26.125 10.6429L27.7475 11.0554L28.9025 11.3854L29.5625 11.6604L30.0025 11.8804L30.415 12.1554L30.7725 12.4579L31.02 12.6779L31.2675 12.9804L31.5425 13.3654L31.9275 14.1079L32.0925 14.5479L32.2575 15.0979L32.34 15.5654L32.3675 15.8954V16.4179L32.285 16.9954L32.12 17.6279L31.8725 18.3429L31.515 19.2504L31.2675 19.8554L30.6625 21.3404L30.1125 22.7154L29.81 23.4579L29.5075 24.2279L29.0675 25.3004L28.655 26.3179L28.3525 27.0604L27.94 28.1329L27.4175 29.4254L27.1975 29.9479L26.9775 30.4979L26.7025 31.1304L26.51 31.4054L26.2625 31.5704L25.6025 31.8729L24.7775 32.2579L23.7325 32.7529L22.7975 33.1929L21.89 33.6054L20.4325 34.2929L19.8825 34.5404L19.6075 34.6229L19.47 34.4854L19.25 34.2104L18.975 33.7154L18.59 32.9179L18.2325 32.1479L17.9025 31.4329L17.6825 30.9929L17.38 30.4429L17.05 29.9204L16.7475 29.5079L16.5 29.2329L16.3075 29.0129L16.005 28.7104L15.7025 28.4629L15.2075 28.0779L14.575 27.6929L14.135 27.4454L13.475 27.1429L12.7875 26.9229L12.045 26.7579L11.2475 26.6754H10.065L9.405 26.7579L8.745 26.8954L8.1125 27.0879L7.5075 27.3354L6.49 27.8029L5.9125 28.1054L5.61 28.0779L5.335 27.9129L4.7575 27.4729L4.29 27.1154L3.74 26.7029L3.245 26.3454L2.6675 25.9054L1.5125 25.0804L0.99 24.6954L0.6325 24.4204L0.22 24.1179L0 23.9529V23.1554L0.44 22.9904L0.935 22.8804L2.1725 22.6879L7.2325 22.0829L7.7825 22.0279H8.3875L8.6625 22.1379L8.965 22.3579L9.3225 22.6329L9.5425 22.7429L9.625 22.7704H9.845L10.5325 22.6329L11.88 22.2754L13.64 21.7804L14.19 21.6429L14.575 21.5054L14.8225 21.3404L14.9875 21.1479L15.2625 20.7354L15.5375 20.2954L15.785 19.9104L16.17 19.3054L16.5 18.8379L16.72 18.5354L16.94 18.2604L17.1875 17.9579L17.765 17.3804L18.2325 17.0229L18.975 16.5279L19.6625 16.1704L20.2675 15.9504L20.955 15.7854L21.5325 15.7029L21.9725 15.6754H22.9075L23.8425 15.7304L24.75 15.8404L26.235 16.0054L26.4275 16.0604L26.4825 16.1704L26.3725 17.3529L26.3175 17.5179H26.0975L24.915 17.3529L23.5125 17.2154L22.6325 17.1604H22.0825L21.4775 17.2154L20.8175 17.3529L20.075 17.6004L19.635 17.8204L19.195 18.0954L18.865 18.3429L18.59 18.5904L18.4525 18.7279H18.3975L18.3425 18.8379L18.095 19.0854L17.765 19.5254L17.105 20.5154L16.8025 20.9829L16.555 21.3679L16.225 21.8079L16.1425 21.9454H16.0875L16.0325 22.0554L15.785 22.3579L15.565 22.5504L15.2625 22.7429L14.7675 22.9354L13.9425 23.1829L12.6225 23.5404L11.66 23.8154L10.56 24.0904L10.0925 24.1729H9.5425L9.0475 24.0904L8.6625 23.9529L8.305 23.6229L8.195 23.4854L8.1125 23.4304L7.645 23.4579L6.2975 23.6504L5.115 23.8154L3.19 24.0354L2.53 24.0629L2.8875 24.3379L3.135 24.5304L3.6025 24.8604L3.9875 25.1354L4.455 25.4654L4.785 25.7129L5.775 26.4279L5.9675 26.4554L6.545 26.1804L7.4525 25.7954L8.4425 25.4654L9.075 25.3279L9.5425 25.2729L10.01 25.2454H11.22L11.99 25.3004L12.65 25.4104L13.31 25.5754L14.0525 25.8229L14.7675 26.1529L15.29 26.4279L15.8125 26.7579L16.1425 27.0054L16.5275 27.3079L16.885 27.6379L17.105 27.8304L17.5725 28.2979L17.765 28.5179L18.1225 28.9579L18.37 29.3154L18.59 29.6729L18.865 30.1679L19.25 30.9379L19.47 31.4604L19.745 32.0654L19.9375 32.5604L20.1025 32.8354L20.185 32.8629L20.4325 32.7804L20.9275 32.5054L21.6425 32.1754L22.275 31.8729L23.045 31.5154L24.475 30.8279L25.1625 30.4979L25.4375 30.3054L25.6025 30.0854L25.7125 29.8104L25.9325 29.2879L26.235 28.5179L26.5925 27.6379L27.005 26.5654L27.3075 25.8229L27.6375 24.9979L27.885 24.3929L28.16 23.6779L28.71 22.3029L28.985 21.6704L29.2875 20.9004L30.0575 18.9754L30.4425 18.0404L30.6625 17.4629L30.8 16.8854L30.8825 16.3354V15.5654L30.7725 15.0154L30.6075 14.6029L30.36 14.1354L30.03 13.6954L29.92 13.5854V13.5304L29.81 13.4754L29.535 13.2279L29.1775 13.0079L28.71 12.8154L28.27 12.6779L27.225 12.4029L25.8225 12.0454L24.255 11.6604L22.935 11.3304L22.5225 11.2754L22.6875 11.8804L22.935 12.5404L23.21 13.0629L23.4025 13.3104L23.65 13.4754L24.64 13.8054L24.7775 13.8879V14.0804L24.53 15.0154L24.4475 15.2354L24.2275 15.2079L23.2925 14.8229L22.6325 14.5754L22.33 14.3829L22.0825 13.9979L21.78 13.3654L21.45 12.5954L21.23 11.9354L21.2025 11.8254V11.4679L21.2575 11.1929L21.395 10.8629L21.56 10.5879L21.945 10.2029L22.22 10.0379L22.605 9.90039Z"/>
        </mask>
        <path d="M22.605 9.90039H22.9625L23.6775 10.0379L26.125 10.6429L27.7475 11.0554L28.9025 11.3854L29.5625 11.6604L30.0025 11.8804L30.415 12.1554L30.7725 12.4579L31.02 12.6779L31.2675 12.9804L31.5425 13.3654L31.9275 14.1079L32.0925 14.5479L32.2575 15.0979L32.34 15.5654L32.3675 15.8954V16.4179L32.285 16.9954L32.12 17.6279L31.8725 18.3429L31.515 19.2504L31.2675 19.8554L30.6625 21.3404L30.1125 22.7154L29.81 23.4579L29.5075 24.2279L29.0675 25.3004L28.655 26.3179L28.3525 27.0604L27.94 28.1329L27.4175 29.4254L27.1975 29.9479L26.9775 30.4979L26.7025 31.1304L26.51 31.4054L26.2625 31.5704L25.6025 31.8729L24.7775 32.2579L23.7325 32.7529L22.7975 33.1929L21.89 33.6054L20.4325 34.2929L19.8825 34.5404L19.6075 34.6229L19.47 34.4854L19.25 34.2104L18.975 33.7154L18.59 32.9179L18.2325 32.1479L17.9025 31.4329L17.6825 30.9929L17.38 30.4429L17.05 29.9204L16.7475 29.5079L16.5 29.2329L16.3075 29.0129L16.005 28.7104L15.7025 28.4629L15.2075 28.0779L14.575 27.6929L14.135 27.4454L13.475 27.1429L12.7875 26.9229L12.045 26.7579L11.2475 26.6754H10.065L9.405 26.7579L8.745 26.8954L8.1125 27.0879L7.5075 27.3354L6.49 27.8029L5.9125 28.1054L5.61 28.0779L5.335 27.9129L4.7575 27.4729L4.29 27.1154L3.74 26.7029L3.245 26.3454L2.6675 25.9054L1.5125 25.0804L0.99 24.6954L0.6325 24.4204L0.22 24.1179L0 23.9529V23.1554L0.44 22.9904L0.935 22.8804L2.1725 22.6879L7.2325 22.0829L7.7825 22.0279H8.3875L8.6625 22.1379L8.965 22.3579L9.3225 22.6329L9.5425 22.7429L9.625 22.7704H9.845L10.5325 22.6329L11.88 22.2754L13.64 21.7804L14.19 21.6429L14.575 21.5054L14.8225 21.3404L14.9875 21.1479L15.2625 20.7354L15.5375 20.2954L15.785 19.9104L16.17 19.3054L16.5 18.8379L16.72 18.5354L16.94 18.2604L17.1875 17.9579L17.765 17.3804L18.2325 17.0229L18.975 16.5279L19.6625 16.1704L20.2675 15.9504L20.955 15.7854L21.5325 15.7029L21.9725 15.6754H22.9075L23.8425 15.7304L24.75 15.8404L26.235 16.0054L26.4275 16.0604L26.4825 16.1704L26.3725 17.3529L26.3175 17.5179H26.0975L24.915 17.3529L23.5125 17.2154L22.6325 17.1604H22.0825L21.4775 17.2154L20.8175 17.3529L20.075 17.6004L19.635 17.8204L19.195 18.0954L18.865 18.3429L18.59 18.5904L18.4525 18.7279H18.3975L18.3425 18.8379L18.095 19.0854L17.765 19.5254L17.105 20.5154L16.8025 20.9829L16.555 21.3679L16.225 21.8079L16.1425 21.9454H16.0875L16.0325 22.0554L15.785 22.3579L15.565 22.5504L15.2625 22.7429L14.7675 22.9354L13.9425 23.1829L12.6225 23.5404L11.66 23.8154L10.56 24.0904L10.0925 24.1729H9.5425L9.0475 24.0904L8.6625 23.9529L8.305 23.6229L8.195 23.4854L8.1125 23.4304L7.645 23.4579L6.2975 23.6504L5.115 23.8154L3.19 24.0354L2.53 24.0629L2.8875 24.3379L3.135 24.5304L3.6025 24.8604L3.9875 25.1354L4.455 25.4654L4.785 25.7129L5.775 26.4279L5.9675 26.4554L6.545 26.1804L7.4525 25.7954L8.4425 25.4654L9.075 25.3279L9.5425 25.2729L10.01 25.2454H11.22L11.99 25.3004L12.65 25.4104L13.31 25.5754L14.0525 25.8229L14.7675 26.1529L15.29 26.4279L15.8125 26.7579L16.1425 27.0054L16.5275 27.3079L16.885 27.6379L17.105 27.8304L17.5725 28.2979L17.765 28.5179L18.1225 28.9579L18.37 29.3154L18.59 29.6729L18.865 30.1679L19.25 30.9379L19.47 31.4604L19.745 32.0654L19.9375 32.5604L20.1025 32.8354L20.185 32.8629L20.4325 32.7804L20.9275 32.5054L21.6425 32.1754L22.275 31.8729L23.045 31.5154L24.475 30.8279L25.1625 30.4979L25.4375 30.3054L25.6025 30.0854L25.7125 29.8104L25.9325 29.2879L26.235 28.5179L26.5925 27.6379L27.005 26.5654L27.3075 25.8229L27.6375 24.9979L27.885 24.3929L28.16 23.6779L28.71 22.3029L28.985 21.6704L29.2875 20.9004L30.0575 18.9754L30.4425 18.0404L30.6625 17.4629L30.8 16.8854L30.8825 16.3354V15.5654L30.7725 15.0154L30.6075 14.6029L30.36 14.1354L30.03 13.6954L29.92 13.5854V13.5304L29.81 13.4754L29.535 13.2279L29.1775 13.0079L28.71 12.8154L28.27 12.6779L27.225 12.4029L25.8225 12.0454L24.255 11.6604L22.935 11.3304L22.5225 11.2754L22.6875 11.8804L22.935 12.5404L23.21 13.0629L23.4025 13.3104L23.65 13.4754L24.64 13.8054L24.7775 13.8879V14.0804L24.53 15.0154L24.4475 15.2354L24.2275 15.2079L23.2925 14.8229L22.6325 14.5754L22.33 14.3829L22.0825 13.9979L21.78 13.3654L21.45 12.5954L21.23 11.9354L21.2025 11.8254V11.4679L21.2575 11.1929L21.395 10.8629L21.56 10.5879L21.945 10.2029L22.22 10.0379L22.605 9.90039Z" fill="#172048"/>
        <path d="M22.605 9.90039H22.9625L23.6775 10.0379L26.125 10.6429L27.7475 11.0554L28.9025 11.3854L29.5625 11.6604L30.0025 11.8804L30.415 12.1554L30.7725 12.4579L31.02 12.6779L31.2675 12.9804L31.5425 13.3654L31.9275 14.1079L32.0925 14.5479L32.2575 15.0979L32.34 15.5654L32.3675 15.8954V16.4179L32.285 16.9954L32.12 17.6279L31.8725 18.3429L31.515 19.2504L31.2675 19.8554L30.6625 21.3404L30.1125 22.7154L29.81 23.4579L29.5075 24.2279L29.0675 25.3004L28.655 26.3179L28.3525 27.0604L27.94 28.1329L27.4175 29.4254L27.1975 29.9479L26.9775 30.4979L26.7025 31.1304L26.51 31.4054L26.2625 31.5704L25.6025 31.8729L24.7775 32.2579L23.7325 32.7529L22.7975 33.1929L21.89 33.6054L20.4325 34.2929L19.8825 34.5404L19.6075 34.6229L19.47 34.4854L19.25 34.2104L18.975 33.7154L18.59 32.9179L18.2325 32.1479L17.9025 31.4329L17.6825 30.9929L17.38 30.4429L17.05 29.9204L16.7475 29.5079L16.5 29.2329L16.3075 29.0129L16.005 28.7104L15.7025 28.4629L15.2075 28.0779L14.575 27.6929L14.135 27.4454L13.475 27.1429L12.7875 26.9229L12.045 26.7579L11.2475 26.6754H10.065L9.405 26.7579L8.745 26.8954L8.1125 27.0879L7.5075 27.3354L6.49 27.8029L5.9125 28.1054L5.61 28.0779L5.335 27.9129L4.7575 27.4729L4.29 27.1154L3.74 26.7029L3.245 26.3454L2.6675 25.9054L1.5125 25.0804L0.99 24.6954L0.6325 24.4204L0.22 24.1179L0 23.9529V23.1554L0.44 22.9904L0.935 22.8804L2.1725 22.6879L7.2325 22.0829L7.7825 22.0279H8.3875L8.6625 22.1379L8.965 22.3579L9.3225 22.6329L9.5425 22.7429L9.625 22.7704H9.845L10.5325 22.6329L11.88 22.2754L13.64 21.7804L14.19 21.6429L14.575 21.5054L14.8225 21.3404L14.9875 21.1479L15.2625 20.7354L15.5375 20.2954L15.785 19.9104L16.17 19.3054L16.5 18.8379L16.72 18.5354L16.94 18.2604L17.1875 17.9579L17.765 17.3804L18.2325 17.0229L18.975 16.5279L19.6625 16.1704L20.2675 15.9504L20.955 15.7854L21.5325 15.7029L21.9725 15.6754H22.9075L23.8425 15.7304L24.75 15.8404L26.235 16.0054L26.4275 16.0604L26.4825 16.1704L26.3725 17.3529L26.3175 17.5179H26.0975L24.915 17.3529L23.5125 17.2154L22.6325 17.1604H22.0825L21.4775 17.2154L20.8175 17.3529L20.075 17.6004L19.635 17.8204L19.195 18.0954L18.865 18.3429L18.59 18.5904L18.4525 18.7279H18.3975L18.3425 18.8379L18.095 19.0854L17.765 19.5254L17.105 20.5154L16.8025 20.9829L16.555 21.3679L16.225 21.8079L16.1425 21.9454H16.0875L16.0325 22.0554L15.785 22.3579L15.565 22.5504L15.2625 22.7429L14.7675 22.9354L13.9425 23.1829L12.6225 23.5404L11.66 23.8154L10.56 24.0904L10.0925 24.1729H9.5425L9.0475 24.0904L8.6625 23.9529L8.305 23.6229L8.195 23.4854L8.1125 23.4304L7.645 23.4579L6.2975 23.6504L5.115 23.8154L3.19 24.0354L2.53 24.0629L2.8875 24.3379L3.135 24.5304L3.6025 24.8604L3.9875 25.1354L4.455 25.4654L4.785 25.7129L5.775 26.4279L5.9675 26.4554L6.545 26.1804L7.4525 25.7954L8.4425 25.4654L9.075 25.3279L9.5425 25.2729L10.01 25.2454H11.22L11.99 25.3004L12.65 25.4104L13.31 25.5754L14.0525 25.8229L14.7675 26.1529L15.29 26.4279L15.8125 26.7579L16.1425 27.0054L16.5275 27.3079L16.885 27.6379L17.105 27.8304L17.5725 28.2979L17.765 28.5179L18.1225 28.9579L18.37 29.3154L18.59 29.6729L18.865 30.1679L19.25 30.9379L19.47 31.4604L19.745 32.0654L19.9375 32.5604L20.1025 32.8354L20.185 32.8629L20.4325 32.7804L20.9275 32.5054L21.6425 32.1754L22.275 31.8729L23.045 31.5154L24.475 30.8279L25.1625 30.4979L25.4375 30.3054L25.6025 30.0854L25.7125 29.8104L25.9325 29.2879L26.235 28.5179L26.5925 27.6379L27.005 26.5654L27.3075 25.8229L27.6375 24.9979L27.885 24.3929L28.16 23.6779L28.71 22.3029L28.985 21.6704L29.2875 20.9004L30.0575 18.9754L30.4425 18.0404L30.6625 17.4629L30.8 16.8854L30.8825 16.3354V15.5654L30.7725 15.0154L30.6075 14.6029L30.36 14.1354L30.03 13.6954L29.92 13.5854V13.5304L29.81 13.4754L29.535 13.2279L29.1775 13.0079L28.71 12.8154L28.27 12.6779L27.225 12.4029L25.8225 12.0454L24.255 11.6604L22.935 11.3304L22.5225 11.2754L22.6875 11.8804L22.935 12.5404L23.21 13.0629L23.4025 13.3104L23.65 13.4754L24.64 13.8054L24.7775 13.8879V14.0804L24.53 15.0154L24.4475 15.2354L24.2275 15.2079L23.2925 14.8229L22.6325 14.5754L22.33 14.3829L22.0825 13.9979L21.78 13.3654L21.45 12.5954L21.23 11.9354L21.2025 11.8254V11.4679L21.2575 11.1929L21.395 10.8629L21.56 10.5879L21.945 10.2029L22.22 10.0379L22.605 9.90039Z" stroke="#172048" stroke-width="0.4" mask="url(#path-1-outside-1_486_1654)"/>
        <mask id="path-2-outside-2_486_1654" maskUnits="userSpaceOnUse" x="31.9727" y="2.95996" width="13" height="20" fill="black">
            <rect fill="white" x="31.9727" y="2.95996" width="13" height="20"/>
            <path d="M36.9327 3.95996H44.0002V5.33496L37.9502 5.36246H35.0902L35.0627 5.38996V6.37996L35.1177 6.62746L35.2002 6.70996L35.2552 6.73746L44.0002 6.76496V8.13996H39.1052L37.2077 8.16746L36.7127 8.19496L36.7677 8.44246V8.99246L36.7402 9.73496V10.0925L36.7952 10.285L37.1802 10.56L37.5652 10.89L37.8677 11.275L38.0327 11.605L38.1427 11.9625L38.1702 12.1825V12.54L38.0602 12.98L37.8677 13.365L37.6202 13.7225L37.2902 14.08L36.9052 14.3825L36.7127 14.63L36.6577 14.905L36.6852 15.125L36.8227 15.4L37.0427 15.6475L37.2902 15.8125L37.5927 16.0325L37.8952 16.28L38.1427 16.555L38.3352 16.83L38.6102 17.3525L38.7477 17.765L38.8027 18.0125L38.8302 18.26V18.7825L38.7752 19.195L38.6377 19.6625L38.3902 20.185L38.0602 20.625L37.5927 21.0925L37.3177 21.285L36.9327 21.505L36.3827 21.67L35.9427 21.7525L35.5027 21.78L34.9802 21.725L34.5677 21.615L34.2102 21.4775L33.7977 21.2575L33.4402 20.955L33.2202 20.7625L33.0277 20.5425L32.9727 20.405V20.1025L33.0552 19.8275L33.3302 19.4425L33.4677 19.36L33.7152 19.415L33.8802 19.4975L34.3477 19.8275L34.5402 19.9925L34.9252 20.185L35.3102 20.3225L35.4477 20.35H35.8602L36.2452 20.2125L36.5477 20.0475L36.8502 19.8L37.0977 19.525L37.3177 19.14L37.4002 18.7825V18.2325L37.2902 17.7925L37.1252 17.49L36.9052 17.215L36.6027 16.9675L36.1352 16.72L35.6952 16.5275L35.4202 16.28L35.3377 16.115L35.2827 14.6025L35.2552 14.41L34.8427 14.025L34.5402 13.7225L34.2927 13.365L34.1277 13.035L33.9902 12.5675L33.9627 12.21L34.0452 11.825L34.1827 11.4675L34.4577 11.0825L34.7052 10.8075L34.9252 10.615L35.2277 10.395H35.2827L35.3377 10.2575L35.3652 10.0925L35.3927 8.22246L35.1727 8.13996L34.6502 7.97496L34.2927 7.75496L34.0727 7.53496L33.8802 7.25996L33.7427 6.92996L33.6602 6.57246L33.6327 6.24246V5.82996L33.6877 5.36246L33.8802 4.83996L34.1552 4.45496L34.4027 4.23496L34.7602 4.04246L35.0902 3.98746L36.9327 3.95996ZM35.8602 11.6875L35.5852 11.825L35.4202 12.045L35.3927 12.1275V12.43L35.5027 12.65L35.6952 12.8975L35.9152 13.035L36.1352 13.0625L36.4102 12.925L36.5477 12.815L36.7127 12.54L36.7402 12.265L36.6577 11.99L36.5477 11.8525L36.3277 11.715L36.2452 11.6875H35.8602Z"/>
        </mask>
        <path d="M36.9327 3.95996H44.0002V5.33496L37.9502 5.36246H35.0902L35.0627 5.38996V6.37996L35.1177 6.62746L35.2002 6.70996L35.2552 6.73746L44.0002 6.76496V8.13996H39.1052L37.2077 8.16746L36.7127 8.19496L36.7677 8.44246V8.99246L36.7402 9.73496V10.0925L36.7952 10.285L37.1802 10.56L37.5652 10.89L37.8677 11.275L38.0327 11.605L38.1427 11.9625L38.1702 12.1825V12.54L38.0602 12.98L37.8677 13.365L37.6202 13.7225L37.2902 14.08L36.9052 14.3825L36.7127 14.63L36.6577 14.905L36.6852 15.125L36.8227 15.4L37.0427 15.6475L37.2902 15.8125L37.5927 16.0325L37.8952 16.28L38.1427 16.555L38.3352 16.83L38.6102 17.3525L38.7477 17.765L38.8027 18.0125L38.8302 18.26V18.7825L38.7752 19.195L38.6377 19.6625L38.3902 20.185L38.0602 20.625L37.5927 21.0925L37.3177 21.285L36.9327 21.505L36.3827 21.67L35.9427 21.7525L35.5027 21.78L34.9802 21.725L34.5677 21.615L34.2102 21.4775L33.7977 21.2575L33.4402 20.955L33.2202 20.7625L33.0277 20.5425L32.9727 20.405V20.1025L33.0552 19.8275L33.3302 19.4425L33.4677 19.36L33.7152 19.415L33.8802 19.4975L34.3477 19.8275L34.5402 19.9925L34.9252 20.185L35.3102 20.3225L35.4477 20.35H35.8602L36.2452 20.2125L36.5477 20.0475L36.8502 19.8L37.0977 19.525L37.3177 19.14L37.4002 18.7825V18.2325L37.2902 17.7925L37.1252 17.49L36.9052 17.215L36.6027 16.9675L36.1352 16.72L35.6952 16.5275L35.4202 16.28L35.3377 16.115L35.2827 14.6025L35.2552 14.41L34.8427 14.025L34.5402 13.7225L34.2927 13.365L34.1277 13.035L33.9902 12.5675L33.9627 12.21L34.0452 11.825L34.1827 11.4675L34.4577 11.0825L34.7052 10.8075L34.9252 10.615L35.2277 10.395H35.2827L35.3377 10.2575L35.3652 10.0925L35.3927 8.22246L35.1727 8.13996L34.6502 7.97496L34.2927 7.75496L34.0727 7.53496L33.8802 7.25996L33.7427 6.92996L33.6602 6.57246L33.6327 6.24246V5.82996L33.6877 5.36246L33.8802 4.83996L34.1552 4.45496L34.4027 4.23496L34.7602 4.04246L35.0902 3.98746L36.9327 3.95996ZM35.8602 11.6875L35.5852 11.825L35.4202 12.045L35.3927 12.1275V12.43L35.5027 12.65L35.6952 12.8975L35.9152 13.035L36.1352 13.0625L36.4102 12.925L36.5477 12.815L36.7127 12.54L36.7402 12.265L36.6577 11.99L36.5477 11.8525L36.3277 11.715L36.2452 11.6875H35.8602Z" fill="#172048"/>
        <path d="M36.9327 3.95996H44.0002V5.33496L37.9502 5.36246H35.0902L35.0627 5.38996V6.37996L35.1177 6.62746L35.2002 6.70996L35.2552 6.73746L44.0002 6.76496V8.13996H39.1052L37.2077 8.16746L36.7127 8.19496L36.7677 8.44246V8.99246L36.7402 9.73496V10.0925L36.7952 10.285L37.1802 10.56L37.5652 10.89L37.8677 11.275L38.0327 11.605L38.1427 11.9625L38.1702 12.1825V12.54L38.0602 12.98L37.8677 13.365L37.6202 13.7225L37.2902 14.08L36.9052 14.3825L36.7127 14.63L36.6577 14.905L36.6852 15.125L36.8227 15.4L37.0427 15.6475L37.2902 15.8125L37.5927 16.0325L37.8952 16.28L38.1427 16.555L38.3352 16.83L38.6102 17.3525L38.7477 17.765L38.8027 18.0125L38.8302 18.26V18.7825L38.7752 19.195L38.6377 19.6625L38.3902 20.185L38.0602 20.625L37.5927 21.0925L37.3177 21.285L36.9327 21.505L36.3827 21.67L35.9427 21.7525L35.5027 21.78L34.9802 21.725L34.5677 21.615L34.2102 21.4775L33.7977 21.2575L33.4402 20.955L33.2202 20.7625L33.0277 20.5425L32.9727 20.405V20.1025L33.0552 19.8275L33.3302 19.4425L33.4677 19.36L33.7152 19.415L33.8802 19.4975L34.3477 19.8275L34.5402 19.9925L34.9252 20.185L35.3102 20.3225L35.4477 20.35H35.8602L36.2452 20.2125L36.5477 20.0475L36.8502 19.8L37.0977 19.525L37.3177 19.14L37.4002 18.7825V18.2325L37.2902 17.7925L37.1252 17.49L36.9052 17.215L36.6027 16.9675L36.1352 16.72L35.6952 16.5275L35.4202 16.28L35.3377 16.115L35.2827 14.6025L35.2552 14.41L34.8427 14.025L34.5402 13.7225L34.2927 13.365L34.1277 13.035L33.9902 12.5675L33.9627 12.21L34.0452 11.825L34.1827 11.4675L34.4577 11.0825L34.7052 10.8075L34.9252 10.615L35.2277 10.395H35.2827L35.3377 10.2575L35.3652 10.0925L35.3927 8.22246L35.1727 8.13996L34.6502 7.97496L34.2927 7.75496L34.0727 7.53496L33.8802 7.25996L33.7427 6.92996L33.6602 6.57246L33.6327 6.24246V5.82996L33.6877 5.36246L33.8802 4.83996L34.1552 4.45496L34.4027 4.23496L34.7602 4.04246L35.0902 3.98746L36.9327 3.95996ZM35.8602 11.6875L35.5852 11.825L35.4202 12.045L35.3927 12.1275V12.43L35.5027 12.65L35.6952 12.8975L35.9152 13.035L36.1352 13.0625L36.4102 12.925L36.5477 12.815L36.7127 12.54L36.7402 12.265L36.6577 11.99L36.5477 11.8525L36.3277 11.715L36.2452 11.6875H35.8602Z" stroke="#172048" stroke-width="0.4" mask="url(#path-2-outside-2_486_1654)"/>
        <mask id="path-3-outside-3_486_1654" maskUnits="userSpaceOnUse" x="3.48242" y="27.4072" width="14" height="14" fill="black">
            <rect fill="white" x="3.48242" y="27.4072" width="14" height="14"/>
            <path d="M10.3399 28.4072H11.1649L11.9074 28.4897L12.4849 28.6272L13.0349 28.8197L13.5024 29.0397L14.0524 29.3697L14.5749 29.7547L14.9324 30.0847L15.2624 30.3872L15.5924 30.7722L15.9224 31.2672L16.1699 31.7072L16.4449 32.3122L16.6374 32.8347L16.8024 33.5222L16.8849 34.0447L16.9124 34.3747V35.0347L16.8299 35.7222L16.6649 36.4647L16.4724 37.0422L16.1974 37.6197L15.8674 38.1972L15.5924 38.5822L15.3449 38.8572L15.1524 39.0772L14.7124 39.5172L14.2724 39.8472L13.7774 40.1497L13.1999 40.4247L12.5124 40.6722L11.9074 40.8097L11.1099 40.9197H10.0374L9.45992 40.8372L8.88242 40.6997L8.35992 40.5072L7.86492 40.2872L7.36992 40.0122L6.90242 39.6822L6.54492 39.3797L5.99492 38.8297L5.66492 38.3897L5.44492 38.0322L5.16992 37.5372L4.83992 36.7672L4.67492 36.2722L4.56492 35.7772L4.50992 35.3922L4.48242 35.0347V34.2922L4.53742 33.7697L4.67492 33.1097L4.86742 32.4772L5.14242 31.8447L5.36242 31.4322L5.58242 31.1022L5.85742 30.7172L6.15992 30.3597L6.57242 29.9197L6.92992 29.6172L7.39742 29.2872L8.05742 28.9297L8.44242 28.7647L8.96492 28.5997L9.48742 28.4897L10.3399 28.4072ZM10.2849 29.7822L9.67992 29.8647L9.10242 30.0297L8.57992 30.2497L8.16742 30.4972L7.67242 30.8547L7.25992 31.2397L7.01242 31.5147L6.68242 31.9822L6.43492 32.3947L6.21492 32.8897L6.02242 33.4672L5.91242 34.0447L5.88492 34.4297V34.9522L5.93992 35.5572L6.07742 36.1897L6.24242 36.6297L6.59992 37.3172L6.84742 37.6472L7.14992 38.0047L7.61742 38.4722L8.05742 38.8022L8.55242 39.0772L8.99242 39.2697L9.62492 39.4622L10.2024 39.5447H11.1374L11.7149 39.4622L12.2649 39.3247L12.8974 39.0497L13.1999 38.8847L13.6399 38.5822L13.9424 38.3347L14.1899 38.1147L14.4374 37.8122L14.7399 37.3997L14.9599 36.9872L15.1799 36.4372L15.3449 35.8872L15.4549 35.1447V34.0997L15.3449 33.3847L15.1524 32.8072L14.9324 32.3672L14.6849 31.9272L14.4099 31.5422L14.1074 31.1847L13.7774 30.8822L13.3924 30.5797L12.8699 30.2772L12.3474 30.0572L11.7974 29.8922L11.3024 29.8097L11.0274 29.7822H10.2849Z"/>
        </mask>
        <path d="M10.3399 28.4072H11.1649L11.9074 28.4897L12.4849 28.6272L13.0349 28.8197L13.5024 29.0397L14.0524 29.3697L14.5749 29.7547L14.9324 30.0847L15.2624 30.3872L15.5924 30.7722L15.9224 31.2672L16.1699 31.7072L16.4449 32.3122L16.6374 32.8347L16.8024 33.5222L16.8849 34.0447L16.9124 34.3747V35.0347L16.8299 35.7222L16.6649 36.4647L16.4724 37.0422L16.1974 37.6197L15.8674 38.1972L15.5924 38.5822L15.3449 38.8572L15.1524 39.0772L14.7124 39.5172L14.2724 39.8472L13.7774 40.1497L13.1999 40.4247L12.5124 40.6722L11.9074 40.8097L11.1099 40.9197H10.0374L9.45992 40.8372L8.88242 40.6997L8.35992 40.5072L7.86492 40.2872L7.36992 40.0122L6.90242 39.6822L6.54492 39.3797L5.99492 38.8297L5.66492 38.3897L5.44492 38.0322L5.16992 37.5372L4.83992 36.7672L4.67492 36.2722L4.56492 35.7772L4.50992 35.3922L4.48242 35.0347V34.2922L4.53742 33.7697L4.67492 33.1097L4.86742 32.4772L5.14242 31.8447L5.36242 31.4322L5.58242 31.1022L5.85742 30.7172L6.15992 30.3597L6.57242 29.9197L6.92992 29.6172L7.39742 29.2872L8.05742 28.9297L8.44242 28.7647L8.96492 28.5997L9.48742 28.4897L10.3399 28.4072ZM10.2849 29.7822L9.67992 29.8647L9.10242 30.0297L8.57992 30.2497L8.16742 30.4972L7.67242 30.8547L7.25992 31.2397L7.01242 31.5147L6.68242 31.9822L6.43492 32.3947L6.21492 32.8897L6.02242 33.4672L5.91242 34.0447L5.88492 34.4297V34.9522L5.93992 35.5572L6.07742 36.1897L6.24242 36.6297L6.59992 37.3172L6.84742 37.6472L7.14992 38.0047L7.61742 38.4722L8.05742 38.8022L8.55242 39.0772L8.99242 39.2697L9.62492 39.4622L10.2024 39.5447H11.1374L11.7149 39.4622L12.2649 39.3247L12.8974 39.0497L13.1999 38.8847L13.6399 38.5822L13.9424 38.3347L14.1899 38.1147L14.4374 37.8122L14.7399 37.3997L14.9599 36.9872L15.1799 36.4372L15.3449 35.8872L15.4549 35.1447V34.0997L15.3449 33.3847L15.1524 32.8072L14.9324 32.3672L14.6849 31.9272L14.4099 31.5422L14.1074 31.1847L13.7774 30.8822L13.3924 30.5797L12.8699 30.2772L12.3474 30.0572L11.7974 29.8922L11.3024 29.8097L11.0274 29.7822H10.2849Z" fill="#172048"/>
        <path d="M10.3399 28.4072H11.1649L11.9074 28.4897L12.4849 28.6272L13.0349 28.8197L13.5024 29.0397L14.0524 29.3697L14.5749 29.7547L14.9324 30.0847L15.2624 30.3872L15.5924 30.7722L15.9224 31.2672L16.1699 31.7072L16.4449 32.3122L16.6374 32.8347L16.8024 33.5222L16.8849 34.0447L16.9124 34.3747V35.0347L16.8299 35.7222L16.6649 36.4647L16.4724 37.0422L16.1974 37.6197L15.8674 38.1972L15.5924 38.5822L15.3449 38.8572L15.1524 39.0772L14.7124 39.5172L14.2724 39.8472L13.7774 40.1497L13.1999 40.4247L12.5124 40.6722L11.9074 40.8097L11.1099 40.9197H10.0374L9.45992 40.8372L8.88242 40.6997L8.35992 40.5072L7.86492 40.2872L7.36992 40.0122L6.90242 39.6822L6.54492 39.3797L5.99492 38.8297L5.66492 38.3897L5.44492 38.0322L5.16992 37.5372L4.83992 36.7672L4.67492 36.2722L4.56492 35.7772L4.50992 35.3922L4.48242 35.0347V34.2922L4.53742 33.7697L4.67492 33.1097L4.86742 32.4772L5.14242 31.8447L5.36242 31.4322L5.58242 31.1022L5.85742 30.7172L6.15992 30.3597L6.57242 29.9197L6.92992 29.6172L7.39742 29.2872L8.05742 28.9297L8.44242 28.7647L8.96492 28.5997L9.48742 28.4897L10.3399 28.4072ZM10.2849 29.7822L9.67992 29.8647L9.10242 30.0297L8.57992 30.2497L8.16742 30.4972L7.67242 30.8547L7.25992 31.2397L7.01242 31.5147L6.68242 31.9822L6.43492 32.3947L6.21492 32.8897L6.02242 33.4672L5.91242 34.0447L5.88492 34.4297V34.9522L5.93992 35.5572L6.07742 36.1897L6.24242 36.6297L6.59992 37.3172L6.84742 37.6472L7.14992 38.0047L7.61742 38.4722L8.05742 38.8022L8.55242 39.0772L8.99242 39.2697L9.62492 39.4622L10.2024 39.5447H11.1374L11.7149 39.4622L12.2649 39.3247L12.8974 39.0497L13.1999 38.8847L13.6399 38.5822L13.9424 38.3347L14.1899 38.1147L14.4374 37.8122L14.7399 37.3997L14.9599 36.9872L15.1799 36.4372L15.3449 35.8872L15.4549 35.1447V34.0997L15.3449 33.3847L15.1524 32.8072L14.9324 32.3672L14.6849 31.9272L14.4099 31.5422L14.1074 31.1847L13.7774 30.8822L13.3924 30.5797L12.8699 30.2772L12.3474 30.0572L11.7974 29.8922L11.3024 29.8097L11.0274 29.7822H10.2849Z" stroke="#172048" stroke-width="0.4" mask="url(#path-3-outside-3_486_1654)"/>
        <path d="M38.2359 21.9826L38.2065 21.9794L38.1801 21.9926L37.9601 22.1026L37.9483 22.1085L37.9384 22.1173L37.6909 22.3373L37.6765 22.3501L37.6679 22.3673L37.5579 22.5873L37.5497 22.6038L37.5478 22.6221L37.5203 22.8971L37.5189 22.912L37.5218 22.9266L37.6573 23.6044V24.387L37.6308 24.6528L37.5497 25.0852L37.3868 25.7096L37.1989 26.2196L36.8747 26.7869L36.6044 27.1925L36.3656 27.4844L36.1798 27.6436L36.1448 27.6735V27.7025L36.1307 27.7072L36.1133 27.713L36.099 27.7246L35.8013 27.9683L35.2899 28.2912L34.7509 28.5338L34.1043 28.7493L33.3502 28.857H32.7029L32.2177 28.8031L31.8141 28.7224L31.2743 28.5605L30.6537 28.2907L30.3029 28.0748L30.001 27.8827L30.0013 27.8822L29.9921 27.8776L29.6071 27.6851L29.586 27.6745H29.5623H29.3423H29.297L29.2671 27.7087L29.0746 27.9287L29.0739 27.9281L29.0666 27.9391L28.9016 28.1866L28.892 28.201L28.8878 28.2178L28.8053 28.5478L28.8023 28.5597V28.572V28.8195V28.8358L28.8075 28.8512L28.835 28.9337L28.8434 28.959L28.8634 28.9768L29.1109 29.1968L29.1103 29.1974L29.1211 29.2047L29.8086 29.6722L29.8148 29.6764L29.8215 29.6796L30.564 30.0371L30.5636 30.0379L30.5757 30.0419L31.2357 30.2619L31.2355 30.2625L31.2461 30.2647L31.8786 30.4022L31.8785 30.4027L31.8879 30.4038L32.5754 30.4863L32.5753 30.487H32.5873H33.1923V30.4877L33.2038 30.4864L33.9188 30.4039L33.9188 30.4041L33.9261 30.4028L34.5036 30.2928L34.5037 30.2936L34.5165 30.2894L35.259 30.0419L35.259 30.0421L35.2645 30.0399L35.8145 29.8199L35.8148 29.8208L35.827 29.8139L36.4045 29.4839L36.4047 29.4843L36.4134 29.4781L36.9084 29.1206L36.9085 29.1207L36.9132 29.1169L37.2157 28.8694L37.216 28.8698L37.2231 28.8627L37.5531 28.5327L37.5533 28.533L37.5587 28.5266L37.8612 28.1691L37.8613 28.1692L37.8648 28.1645L38.1123 27.8345L38.1125 27.8346L38.1155 27.83L38.3905 27.4175L38.391 27.4178L38.3956 27.4091L38.6156 26.9966L38.6158 26.9967L38.6185 26.9906L38.866 26.4406L38.8665 26.4408L38.8697 26.4312L39.0622 25.8537L39.063 25.8539L39.0654 25.8416L39.2029 25.1541L39.2034 25.1542L39.2044 25.144L39.2594 24.5665L39.2598 24.5666V24.557V23.5945H39.2603L39.2593 23.5846L39.2318 23.3096L39.2321 23.3096L39.231 23.3031L39.1485 22.8081L39.1466 22.7967L39.1422 22.7861L39.0047 22.4561L38.9984 22.441L38.9876 22.4287L38.7951 22.2087L38.7864 22.1987L38.7753 22.1913L38.5278 22.0263L38.5076 22.0128L38.4834 22.0101L38.2359 21.9826Z" fill="#172048" stroke="#172048" stroke-width="0.2"/>
        <path d="M10.4773 33.9629H10.8348L11.0823 34.0729L11.2748 34.2379L11.3573 34.4579V34.8429L11.2198 35.1179L11.1098 35.2554L10.8348 35.4204H10.6148L10.2848 35.2829L10.0923 35.0629L10.0373 34.9254L10.0098 34.7604V34.5404L10.0923 34.2654L10.2573 34.0729L10.4773 33.9629Z" fill="#172048"/>
        <path d="M32.7527 23.275H32.729L32.7079 23.2856L32.6529 23.3131L32.6384 23.3203L32.6269 23.3318L32.3244 23.6343L32.313 23.6458L32.3057 23.6603L32.1957 23.8803L32.1852 23.9014V23.925V24.255V24.2786L32.1957 24.2997L32.3332 24.5747L32.3405 24.5892L32.3519 24.6007L32.5444 24.7932L32.5543 24.8031L32.5666 24.8099L32.8141 24.9474L32.8302 24.9564L32.8485 24.959L33.041 24.9865L33.0762 24.9915L33.1066 24.9732L33.3816 24.8082L33.3951 24.8002L33.4054 24.7884L33.5979 24.5684L33.6064 24.5587L33.6121 24.5472L33.7771 24.2172L33.7877 24.1961V24.1725V23.925V23.9014L33.7771 23.8803L33.6946 23.7153L33.6861 23.6983L33.6721 23.6857L33.3971 23.4382L33.3844 23.4268L33.3686 23.4202L33.0386 23.2827L33.0202 23.275H33.0002H32.7527Z" fill="#172048" stroke="#172048" stroke-width="0.2"/>
    </g>
    <defs>
        <clipPath id="clip0_486_1654">
            <rect width="44" height="44" fill="white"/>
        </clipPath>
    </defs>
</svg>
