<svg width="22" height="22" viewBox="0 0 22 22" fill="none" xmlns="http://www.w3.org/2000/svg">
    <path d="M2.96619 10.3594H1.59701C1.26729 10.3594 1 10.6267 1 10.9564V16.5033C1 16.9734 1.38103 17.3544 1.85106 17.3544H3.88027C4.35029 17.3544 4.73133 16.9734 4.73133 16.5033V12.6725C4.73133 12.5129 4.68648 12.3566 4.6019 12.2213L3.68782 10.7593C3.53228 10.5105 3.25958 10.3594 2.96619 10.3594Z" fill="#C9383F"/>
    <mask id="path-2-outside-1_643_835" maskUnits="userSpaceOnUse" x="0.845703" y="0" width="21" height="12" fill="black">
        <rect fill="white" x="0.845703" width="21" height="12"/>
        <path d="M1.8457 10.064C1.8457 8.87368 2.08248 7.69503 2.54252 6.59534C3.00257 5.49565 3.67686 4.49644 4.5269 3.65478C5.37695 2.81311 6.3861 2.14546 7.49674 1.68995C8.60738 1.23445 9.79775 1 10.9999 1C12.202 1 13.3924 1.23445 14.5031 1.68995C15.6137 2.14546 16.6228 2.81311 17.4729 3.65478C18.3229 4.49645 18.9972 5.49565 19.4573 6.59534C19.9173 7.69503 20.1541 8.87368 20.1541 10.064L19.0316 10.064C19.0316 9.01964 18.8238 7.98552 18.4202 7.02068C18.0166 6.05583 17.425 5.17915 16.6792 4.44069C15.9333 3.70223 15.0479 3.11645 14.0735 2.7168C13.099 2.31715 12.0546 2.11145 10.9999 2.11145C9.94516 2.11145 8.90076 2.31715 7.92631 2.7168C6.95186 3.11645 6.06645 3.70223 5.32064 4.44069C4.57483 5.17915 3.98322 6.05583 3.57959 7.02068C3.17596 7.98552 2.96822 9.01963 2.96822 10.064H1.8457Z"/>
    </mask>
    <path d="M1.8457 10.064C1.8457 8.87368 2.08248 7.69503 2.54252 6.59534C3.00257 5.49565 3.67686 4.49644 4.5269 3.65478C5.37695 2.81311 6.3861 2.14546 7.49674 1.68995C8.60738 1.23445 9.79775 1 10.9999 1C12.202 1 13.3924 1.23445 14.5031 1.68995C15.6137 2.14546 16.6228 2.81311 17.4729 3.65478C18.3229 4.49645 18.9972 5.49565 19.4573 6.59534C19.9173 7.69503 20.1541 8.87368 20.1541 10.064L19.0316 10.064C19.0316 9.01964 18.8238 7.98552 18.4202 7.02068C18.0166 6.05583 17.425 5.17915 16.6792 4.44069C15.9333 3.70223 15.0479 3.11645 14.0735 2.7168C13.099 2.31715 12.0546 2.11145 10.9999 2.11145C9.94516 2.11145 8.90076 2.31715 7.92631 2.7168C6.95186 3.11645 6.06645 3.70223 5.32064 4.44069C4.57483 5.17915 3.98322 6.05583 3.57959 7.02068C3.17596 7.98552 2.96822 9.01963 2.96822 10.064H1.8457Z" fill="#C9383F"/>
    <path d="M1.8457 10.064C1.8457 8.87368 2.08248 7.69503 2.54252 6.59534C3.00257 5.49565 3.67686 4.49644 4.5269 3.65478C5.37695 2.81311 6.3861 2.14546 7.49674 1.68995C8.60738 1.23445 9.79775 1 10.9999 1C12.202 1 13.3924 1.23445 14.5031 1.68995C15.6137 2.14546 16.6228 2.81311 17.4729 3.65478C18.3229 4.49645 18.9972 5.49565 19.4573 6.59534C19.9173 7.69503 20.1541 8.87368 20.1541 10.064L19.0316 10.064C19.0316 9.01964 18.8238 7.98552 18.4202 7.02068C18.0166 6.05583 17.425 5.17915 16.6792 4.44069C15.9333 3.70223 15.0479 3.11645 14.0735 2.7168C13.099 2.31715 12.0546 2.11145 10.9999 2.11145C9.94516 2.11145 8.90076 2.31715 7.92631 2.7168C6.95186 3.11645 6.06645 3.70223 5.32064 4.44069C4.57483 5.17915 3.98322 6.05583 3.57959 7.02068C3.17596 7.98552 2.96822 9.01963 2.96822 10.064H1.8457Z" stroke="#C9383F" stroke-width="2" mask="url(#path-2-outside-1_643_835)"/>
    <path d="M6.84837 5.52869C7.94933 4.43859 9.44254 3.82617 10.9995 3.82617C12.5565 3.82617 14.0497 4.43859 15.1507 5.52869L14.5415 6.13184C13.6021 5.2017 12.328 4.67915 10.9995 4.67915C9.67102 4.67915 8.39692 5.2017 7.45752 6.13184L6.84837 5.52869Z" fill="#C9383F"/>
    <path d="M19.0338 10.3594H20.403C20.7327 10.3594 21 10.6267 21 10.9564V16.5033C21 16.9734 20.619 17.3544 20.1489 17.3544H18.1197C17.6497 17.3544 17.2687 16.9734 17.2687 16.5033V12.6725C17.2687 12.5129 17.3135 12.3566 17.3981 12.2213L18.3122 10.7593C18.4677 10.5105 18.7404 10.3594 19.0338 10.3594Z" fill="#C9383F"/>
    <path d="M17.6668 17.207C15.6534 20.2699 13.7133 20.9622 9.30859 21.0001" stroke="#C9383F" stroke-width="2"/>
</svg>
