<svg width="48" height="42" viewBox="0 0 48 42" fill="none" xmlns="http://www.w3.org/2000/svg">
    <path d="M37.7434 10.3564C35.9338 7.2961 33.3505 4.76613 30.2531 3.02088C27.1557 1.27563 23.6534 0.376616 20.0983 0.414219C16.5433 0.451822 13.0608 1.42472 10.001 3.2351C6.94117 5.04548 4.41192 7.62952 2.66753 10.7274C0.923145 13.8253 0.0251007 17.3279 0.0636931 20.8829C0.102285 24.4379 1.07615 27.9202 2.88738 30.9795C4.69861 34.0388 7.28336 36.5673 10.3817 38.3108C13.4801 40.0543 16.9829 40.9514 20.5379 40.9118L20.5101 38.411C17.3941 38.4457 14.324 37.6594 11.6083 36.1312C8.89255 34.603 6.62704 32.3868 5.03951 29.7053C3.45198 27.0239 2.59839 23.9717 2.56456 20.8558C2.53074 17.7398 3.31787 14.6698 4.84681 11.9545C6.37576 9.23925 8.59262 6.97436 11.2745 5.38758C13.9564 3.8008 17.0088 2.94806 20.1248 2.9151C23.2408 2.88214 26.3105 3.67012 29.0254 5.19982C31.7402 6.72952 34.0045 8.94702 35.5905 11.6293L37.7434 10.3564Z" fill="#333333"/>
    <path d="M9.499 25.287V23.3885C9.84309 23.6773 10.2168 23.8948 10.6203 24.0411C11.0237 24.1835 11.4311 24.2547 11.8424 24.2547C12.0836 24.2547 12.2933 24.233 12.4712 24.1895C12.6532 24.1459 12.8035 24.0866 12.9221 24.0115C13.0447 23.9324 13.1357 23.8414 13.195 23.7386C13.2543 23.6318 13.284 23.5171 13.284 23.3945C13.284 23.2284 13.2365 23.0801 13.1416 22.9495C13.0467 22.819 12.9162 22.6984 12.7501 22.5876C12.5879 22.4769 12.3941 22.3701 12.1687 22.2673C11.9432 22.1645 11.7 22.0596 11.439 21.9529C10.7745 21.676 10.2781 21.3378 9.94988 20.9384C9.62556 20.5389 9.4634 20.0564 9.4634 19.4908C9.4634 19.0479 9.55239 18.6682 9.73037 18.3518C9.90835 18.0314 10.1496 17.7684 10.4542 17.5627C10.7626 17.3571 11.1186 17.2068 11.522 17.1118C11.9254 17.013 12.3526 16.9635 12.8035 16.9635C13.2464 16.9635 13.638 16.9912 13.9781 17.0466C14.3222 17.098 14.6386 17.1791 14.9273 17.2898V19.0637C14.785 18.9648 14.6287 18.8778 14.4587 18.8026C14.2926 18.7275 14.1205 18.6662 13.9425 18.6187C13.7646 18.5673 13.5866 18.5297 13.4086 18.506C13.2346 18.4823 13.0685 18.4704 12.9103 18.4704C12.6927 18.4704 12.495 18.4922 12.317 18.5357C12.139 18.5752 11.9887 18.6326 11.8661 18.7077C11.7435 18.7829 11.6486 18.8738 11.5813 18.9806C11.5141 19.0834 11.4805 19.2001 11.4805 19.3306C11.4805 19.473 11.5181 19.6016 11.5932 19.7163C11.6684 19.827 11.7751 19.9338 11.9136 20.0366C12.052 20.1355 12.2201 20.2344 12.4178 20.3333C12.6156 20.4282 12.8391 20.5271 13.0882 20.6299C13.4284 20.7723 13.7329 20.9245 14.0019 21.0867C14.2748 21.2449 14.5081 21.4249 14.7019 21.6266C14.8957 21.8283 15.044 22.0596 15.1469 22.3207C15.2497 22.5778 15.3011 22.8783 15.3011 23.2224C15.3011 23.697 15.2101 24.0965 15.0282 24.4208C14.8502 24.7412 14.607 25.0022 14.2985 25.2039C13.99 25.4017 13.6301 25.5441 13.2187 25.6311C12.8114 25.7181 12.3803 25.7616 11.9254 25.7616C11.4587 25.7616 11.0138 25.722 10.5906 25.6429C10.1714 25.5638 9.8075 25.4452 9.499 25.287ZM20.2964 25.7616C19.0782 25.7616 18.0855 25.3661 17.3182 24.5751C16.5509 23.7801 16.1673 22.7458 16.1673 21.4723C16.1673 20.1276 16.5568 19.0399 17.336 18.2094C18.1151 17.3788 19.1474 16.9635 20.4328 16.9635C21.647 16.9635 22.6279 17.361 23.3754 18.156C24.1269 18.951 24.5026 19.999 24.5026 21.3003C24.5026 22.6371 24.113 23.7148 23.3339 24.5335C22.5587 25.3522 21.5462 25.7616 20.2964 25.7616ZM20.3794 18.6128C19.7071 18.6128 19.1731 18.8659 18.7776 19.3722C18.3821 19.8745 18.1844 20.5409 18.1844 21.3715C18.1844 22.2139 18.3821 22.8803 18.7776 23.3708C19.1731 23.8612 19.6912 24.1064 20.332 24.1064C20.9925 24.1064 21.5165 23.8691 21.9041 23.3945C22.2917 22.9159 22.4855 22.2534 22.4855 21.4071C22.4855 20.5251 22.2976 19.8389 21.9219 19.3484C21.5462 18.858 21.032 18.6128 20.3794 18.6128ZM25.5289 25.287V23.3885C25.873 23.6773 26.2468 23.8948 26.6502 24.0411C27.0536 24.1835 27.461 24.2547 27.8723 24.2547C28.1136 24.2547 28.3232 24.233 28.5012 24.1895C28.6831 24.1459 28.8334 24.0866 28.952 24.0115C29.0747 23.9324 29.1656 23.8414 29.2249 23.7386C29.2843 23.6318 29.3139 23.5171 29.3139 23.3945C29.3139 23.2284 29.2665 23.0801 29.1716 22.9495C29.0766 22.819 28.9461 22.6984 28.78 22.5876C28.6178 22.4769 28.424 22.3701 28.1986 22.2673C27.9732 22.1645 27.7299 22.0596 27.4689 21.9529C26.8044 21.676 26.3081 21.3378 25.9798 20.9384C25.6555 20.5389 25.4933 20.0564 25.4933 19.4908C25.4933 19.0479 25.5823 18.6682 25.7603 18.3518C25.9383 18.0314 26.1795 17.7684 26.4841 17.5627C26.7926 17.3571 27.1485 17.2068 27.552 17.1118C27.9554 17.013 28.3825 16.9635 28.8334 16.9635C29.2764 16.9635 29.6679 16.9912 30.0081 17.0466C30.3521 17.098 30.6686 17.1791 30.9573 17.2898V19.0637C30.8149 18.9648 30.6587 18.8778 30.4886 18.8026C30.3225 18.7275 30.1504 18.6662 29.9725 18.6187C29.7945 18.5673 29.6165 18.5297 29.4385 18.506C29.2645 18.4823 29.0984 18.4704 28.9402 18.4704C28.7227 18.4704 28.5249 18.4922 28.3469 18.5357C28.1689 18.5752 28.0187 18.6326 27.896 18.7077C27.7734 18.7829 27.6785 18.8738 27.6113 18.9806C27.544 19.0834 27.5104 19.2001 27.5104 19.3306C27.5104 19.473 27.548 19.6016 27.6231 19.7163C27.6983 19.827 27.8051 19.9338 27.9435 20.0366C28.0819 20.1355 28.25 20.2344 28.4478 20.3333C28.6455 20.4282 28.869 20.5271 29.1182 20.6299C29.4583 20.7723 29.7628 20.9245 30.0318 21.0867C30.3047 21.2449 30.538 21.4249 30.7318 21.6266C30.9256 21.8283 31.0739 22.0596 31.1768 22.3207C31.2796 22.5778 31.331 22.8783 31.331 23.2224C31.331 23.697 31.2401 24.0965 31.0581 24.4208C30.8801 24.7412 30.6369 25.0022 30.3284 25.2039C30.0199 25.4017 29.66 25.5441 29.2487 25.6311C28.8413 25.7181 28.4102 25.7616 27.9554 25.7616C27.4887 25.7616 27.0437 25.722 26.6205 25.6429C26.2013 25.5638 25.8374 25.4452 25.5289 25.287Z" fill="#333333"/>
    <path d="M30.023 32.7383L29.3609 32.2996L30.356 30.798L31.0181 31.2367L30.023 32.7383ZM27.5525 32.4664L25.6122 34.2674L24.3867 32.9472L26.327 31.1462L27.5525 32.4664ZM25.794 37.035L27.859 38.4034L26.8639 39.905L24.7989 38.5366L25.794 37.035ZM28.9882 38.7343C30.7059 38.5142 35.0557 37.3655 38.6615 31.2643L40.2123 32.1808C36.2825 38.8302 31.4004 40.2412 29.2174 40.5211L28.9882 38.7343ZM38.6615 31.2643C42.1004 25.4453 41.9355 21.2415 41.6242 19.4526L43.3989 19.1438C43.7802 21.3349 43.8793 25.976 40.2123 32.1808L38.6615 31.2643ZM35.2664 23.8661L34.8495 23.5898L35.8446 22.0882L36.2615 22.3644L35.2664 23.8661ZM33.5746 19.2502L34.5706 16.8236L36.2371 17.5077L35.241 19.9343L33.5746 19.2502ZM39.4625 15.2255L41.7441 16.7374L40.7491 18.239L38.4675 16.7271L39.4625 15.2255ZM35.764 23.1152C36.2615 22.3644 36.2625 22.3651 36.2635 22.3658C36.2639 22.366 36.2649 22.3667 36.2656 22.3671C36.2669 22.3681 36.2684 22.369 36.2698 22.37C36.2727 22.372 36.2756 22.374 36.2787 22.3761C36.2849 22.3804 36.2914 22.385 36.2983 22.3901C36.3122 22.4002 36.3275 22.4118 36.3441 22.4251C36.3773 22.4517 36.4156 22.485 36.4571 22.5256C36.5403 22.6073 36.6357 22.718 36.7283 22.8631C36.9165 23.1582 37.0766 23.5695 37.1209 24.1188C37.2079 25.1981 36.8464 26.7595 35.4913 29.0524L33.9405 28.1359C35.2071 25.9926 35.3697 24.8146 35.3253 24.2635C35.3039 23.9976 35.2344 23.8709 35.2095 23.8318C35.1955 23.8099 35.1884 23.8045 35.1958 23.8118C35.1994 23.8153 35.2064 23.8218 35.2179 23.831C35.2236 23.8356 35.2304 23.8408 35.2384 23.8467C35.2425 23.8496 35.2468 23.8527 35.2515 23.8559C35.2538 23.8575 35.2562 23.8592 35.2587 23.8609C35.2599 23.8617 35.2612 23.8626 35.2625 23.8634C35.2631 23.8639 35.2641 23.8645 35.2645 23.8647C35.2654 23.8654 35.2664 23.8661 35.764 23.1152ZM35.4913 29.0524C34.1402 31.3386 32.9636 32.3856 31.9749 32.7885C31.4676 32.9951 31.0252 33.0248 30.6729 32.9717C30.5007 32.9458 30.359 32.9013 30.25 32.8564C30.1956 32.8339 30.1493 32.8114 30.1117 32.7911C30.0927 32.7809 30.0759 32.7712 30.0612 32.7623C30.0538 32.7579 30.0469 32.7536 30.0405 32.7496C30.0374 32.7477 30.0343 32.7456 30.0314 32.7437C30.03 32.7428 30.0285 32.7419 30.0271 32.741C30.0264 32.7406 30.0253 32.7398 30.025 32.7396C30.024 32.7389 30.023 32.7383 30.5205 31.9875C31.0181 31.2367 31.0171 31.236 31.0161 31.2354C31.0157 31.2351 31.0147 31.2345 31.0141 31.234C31.0128 31.2332 31.0115 31.2324 31.0102 31.2316C31.0076 31.2299 31.0052 31.2283 31.0028 31.2267C30.998 31.2238 30.9934 31.2209 30.9891 31.2183C30.9805 31.2131 30.9727 31.2088 30.966 31.2051C30.9526 31.1979 30.9428 31.1935 30.9366 31.1909C30.9238 31.1856 30.9256 31.1881 30.9418 31.1905C30.9664 31.1942 31.0814 31.2073 31.2952 31.1202C31.7488 30.9354 32.6698 30.2859 33.9405 28.1359L35.4913 29.0524ZM34.5706 16.8236C35.3713 14.8731 37.6801 14.0444 39.4625 15.2255L38.4675 16.7271C37.7075 16.2235 36.6418 16.5217 36.2371 17.5077L34.5706 16.8236ZM41.6242 19.4526C41.5419 18.9795 41.2308 18.5582 40.7491 18.239L41.7441 16.7374C42.523 17.2535 43.2105 18.0612 43.3989 19.1438L41.6242 19.4526ZM27.859 38.4034C28.2645 38.6722 28.6485 38.7779 28.9882 38.7343L29.2174 40.5211C28.3231 40.6357 27.5083 40.3321 26.8639 39.905L27.859 38.4034ZM34.8495 23.5898C33.443 22.6578 32.934 20.8104 33.5746 19.2502L35.241 19.9343C34.9075 20.7467 35.1969 21.659 35.8446 22.0882L34.8495 23.5898ZM25.6122 34.2674C24.7786 35.0412 24.9032 36.4448 25.794 37.035L24.7989 38.5366C22.902 37.2796 22.7284 34.4865 24.3867 32.9472L25.6122 34.2674ZM29.3609 32.2996C28.8007 31.9283 28.0732 31.9831 27.5525 32.4664L26.327 31.1462C27.4426 30.1106 29.0859 29.9563 30.356 30.798L29.3609 32.2996Z" fill="#333333"/>
</svg>
